<svg xmlns="http://www.w3.org/2000/svg" width="19.961" height="19.992" viewBox="959.76 784 19.961 19.992"><g data-name="color-bucket-svgrepo-com"><path d="M973.537 784c-1.26 0-2.303 1.104-2.475 2.539l-8.484 8.483 7.778 7.778a3 3 0 0 0 4.243 0l4.243-4.242a3 3 0 0 0 0-4.243l-2.805-2.805v-4.553c0-1.633-1.12-2.957-2.5-2.957Zm-.5 2.957v1.553l1 1v-2.553c0-.326-.224-.591-.5-.591s-.5.265-.5.591Zm0 5.915v-1.533l4.39 4.39a1 1 0 0 1 0 1.415l-4.242 4.242a1 1 0 0 1-1.414 0l-6.365-6.364 5.63-5.63v3.48c0 .043.002.085.003.128h2.01a.698.698 0 0 1-.012-.128Z" fill="#005f83" fill-rule="evenodd" data-name="Path 1354"/><path d="M964.881 798.871a3 3 0 1 1-4.243 0l2.122-2.121 2.121 2.121Z" fill="#005f83" fill-rule="evenodd" data-name="Path 1355"/></g></svg>